<svg xmlns="http://www.w3.org/2000/svg" xmlns:xlink="http://www.w3.org/1999/xlink" viewBox="0 0 139.636 29.987" overflow="visible"><g><path d="M 0.033 0.033 L 139.636 0.033 L 139.636 29.96 L 0.033 29.96 Z" fill="transparent"></path><g><defs><linearGradient id="idsjhseNHdtV_3g187" x1="0.5527762946244844" x2="0.44722370537551565" y1="0" y2="1"><stop offset="0" stop-color="rgb(201,147,42)" stop-opacity="1"></stop><stop offset="1" stop-color="rgb(201,147,42)" stop-opacity="1"></stop></linearGradient></defs><path d="M 17.972 15.573 C 18.851 15.216 19.802 15.404 20.452 15.955 C 21.13 16.53 21.449 17.476 21.096 18.47 L 21.079 18.517 C 20.628 19.717 19.356 19.988 18.573 20.049 C 17.903 20.102 17.225 20.034 16.751 19.961 C 15.974 21.232 15.129 22.741 14.668 23.43 C 14.465 23.734 14.241 24.151 13.975 24.667 C 13.718 25.165 13.426 25.748 13.111 26.315 C 12.499 27.417 11.692 28.677 10.602 29.368 C 10.046 29.721 9.443 29.908 8.851 29.807 C 8.234 29.701 7.792 29.309 7.555 28.838 C 7.116 27.961 7.346 26.746 8.285 26.077 L 8.285 26.077 C 9.092 25.503 10.937 23.729 11.796 22.873 L 11.94 22.728 L 12.132 22.657 C 12.128 22.658 12.195 22.629 12.336 22.502 C 12.468 22.383 12.622 22.217 12.797 22.005 C 13.151 21.578 13.528 21.04 13.918 20.482 C 14.293 19.945 14.69 19.372 15.047 18.949 C 15.153 18.823 15.268 18.695 15.39 18.577 C 15.769 17.97 16.158 17.38 16.526 16.896 C 16.736 16.619 16.951 16.36 17.165 16.147 C 17.364 15.947 17.624 15.721 17.93 15.591 Z M 10.91 26.323 C 10.331 26.85 9.773 27.33 9.382 27.609 C 9.309 27.66 9.258 27.735 9.238 27.821 C 9.227 27.862 9.225 27.904 9.23 27.945 C 9.294 27.932 9.412 27.893 9.589 27.781 L 9.619 27.761 C 10.062 27.47 10.488 26.967 10.91 26.323 Z M 19.229 17.389 C 19.102 17.281 18.893 17.23 18.681 17.317 C 18.686 17.316 18.628 17.348 18.503 17.474 C 18.371 17.605 18.213 17.792 18.031 18.032 C 17.993 18.081 17.956 18.132 17.917 18.184 C 18.086 18.189 18.258 18.186 18.425 18.173 C 19.142 18.117 19.29 17.916 19.312 17.856 C 19.366 17.712 19.358 17.617 19.343 17.561 C 19.327 17.5 19.291 17.441 19.229 17.389 Z" fill="url(#idsjhseNHdtV_3g187)"></path></g><g><defs><linearGradient id="idsjhseNHdtV_4g-899795561" x1="0.37839070525811835" x2="0.6216092947418816" y1="0" y2="1"><stop offset="0" stop-color="rgb(144,53,244)" stop-opacity="1"></stop><stop offset="1" stop-color="rgb(201,147,42)" stop-opacity="1"></stop></linearGradient></defs><path d="M 2.614 0.092 C 4.145 -0.013 6.6 -0.144 9.013 0.43 C 11.45 1.01 13.933 2.331 15.359 5.175 C 16.748 7.946 17.192 11.301 17.122 14.17 C 17.087 15.612 16.921 16.96 16.666 18.085 C 16.418 19.178 16.062 20.163 15.586 20.797 L 15.479 20.939 L 15.327 21.033 C 13.983 21.863 10.657 22.732 7.975 19.761 L 7.975 19.761 C 6.441 18.06 5.269 15.713 4.397 13.439 C 3.518 11.15 2.915 8.86 2.548 7.216 C 1.899 4.304 1.79 2.036 1.737 1.083 L 1.686 0.156 Z M 8.576 2.261 C 6.866 1.854 5.097 1.847 3.678 1.914 C 3.758 3.04 3.932 4.753 4.39 6.808 C 4.744 8.394 5.324 10.59 6.159 12.766 C 7 14.957 8.071 17.054 9.378 18.502 L 9.422 18.549 C 11.169 20.441 13.222 20.023 14.172 19.525 C 14.384 19.173 14.625 18.552 14.826 17.669 C 15.05 16.681 15.203 15.458 15.236 14.124 C 15.301 11.441 14.877 8.421 13.672 6.016 C 12.572 3.824 10.663 2.757 8.576 2.261 Z" fill="url(#idsjhseNHdtV_4g-899795561)"></path></g><g><defs><linearGradient id="idsjhseNHdtV_5g807096131" x1="0.7870517642897905" x2="0.21294823571020954" y1="0" y2="1"><stop offset="0" stop-color="rgb(201,147,42)" stop-opacity="1"></stop><stop offset="1" stop-color="rgb(147,89,255)" stop-opacity="1"></stop></linearGradient></defs><path d="M 10.383 20.089 C 11.205 20.068 11.985 20.114 12.554 20.269 L 13.041 20.401 L 13.2 20.879 C 13.444 21.608 13.517 23.182 12.447 24.707 C 12.065 25.252 11.347 25.834 10.549 26.373 C 9.719 26.933 8.698 27.515 7.609 28.043 C 5.47 29.08 2.902 29.987 0.943 29.987 L 0 29.987 L 0 29.046 C 0 28.267 0.111 27.035 0.442 25.8 C 0.767 24.592 1.345 23.225 2.386 22.347 C 3.022 21.81 3.871 21.4 4.755 21.087 C 5.651 20.77 6.643 20.531 7.61 20.367 C 8.578 20.203 9.541 20.109 10.383 20.089 Z M 11.465 21.993 C 11.183 21.97 10.835 21.96 10.43 21.97 C 9.685 21.988 8.813 22.072 7.927 22.222 C 7.04 22.373 6.157 22.587 5.387 22.86 C 4.629 23.129 4.032 23.435 3.642 23.753 L 3.604 23.784 C 3.004 24.29 2.556 25.206 2.265 26.288 C 2.104 26.888 2.004 27.491 1.947 28.017 C 3.361 27.792 5.124 27.155 6.784 26.351 C 7.805 25.856 8.747 25.317 9.491 24.814 C 10.266 24.291 10.731 23.87 10.901 23.628 C 11.335 23.009 11.454 22.41 11.465 21.993 Z" fill="url(#idsjhseNHdtV_5g807096131)"></path></g><path d="M 29.15 24.603 C 28.356 24.603 27.663 24.427 27.071 24.075 C 26.491 23.723 26.044 23.233 25.729 22.605 C 25.427 21.976 25.275 21.241 25.275 20.399 L 25.275 14.123 L 27.751 14.123 L 27.751 20.192 C 27.751 20.619 27.833 20.996 27.997 21.323 C 28.173 21.637 28.419 21.888 28.734 22.077 C 29.061 22.253 29.427 22.341 29.83 22.341 C 30.233 22.341 30.592 22.253 30.907 22.077 C 31.222 21.888 31.468 21.631 31.644 21.304 C 31.82 20.977 31.909 20.588 31.909 20.136 L 31.909 14.123 L 34.384 14.123 L 34.384 24.376 L 32.041 24.376 L 32.041 22.36 L 32.249 22.718 C 32.009 23.346 31.613 23.817 31.058 24.131 C 30.516 24.445 29.88 24.603 29.15 24.603 Z M 41.92 24.603 C 41.177 24.603 40.49 24.458 39.86 24.169 C 39.243 23.868 38.752 23.44 38.386 22.887 L 38.632 22.397 L 38.632 24.376 L 36.308 24.376 L 36.308 10.108 L 38.783 10.108 L 38.783 16.159 L 38.405 15.65 C 38.758 15.097 39.237 14.67 39.842 14.368 C 40.446 14.054 41.145 13.897 41.939 13.897 C 42.909 13.897 43.785 14.136 44.566 14.613 C 45.347 15.091 45.964 15.731 46.418 16.536 C 46.884 17.34 47.117 18.244 47.117 19.25 C 47.117 20.242 46.89 21.147 46.437 21.964 C 45.983 22.781 45.366 23.428 44.585 23.905 C 43.804 24.37 42.916 24.603 41.92 24.603 Z M 41.637 22.341 C 42.204 22.341 42.708 22.209 43.149 21.945 C 43.59 21.681 43.93 21.317 44.169 20.852 C 44.421 20.387 44.547 19.853 44.547 19.25 C 44.547 18.647 44.421 18.119 44.169 17.666 C 43.93 17.202 43.59 16.837 43.149 16.573 C 42.708 16.297 42.204 16.159 41.637 16.159 C 41.095 16.159 40.604 16.291 40.163 16.554 C 39.734 16.818 39.394 17.189 39.142 17.666 C 38.903 18.131 38.783 18.659 38.783 19.25 C 38.783 19.853 38.903 20.387 39.142 20.852 C 39.394 21.317 39.734 21.681 40.163 21.945 C 40.604 22.209 41.095 22.341 41.637 22.341 Z M 52.293 24.603 C 51.499 24.603 50.806 24.427 50.214 24.075 C 49.635 23.723 49.187 23.233 48.872 22.605 C 48.57 21.976 48.419 21.241 48.419 20.399 L 48.419 14.123 L 50.894 14.123 L 50.894 20.192 C 50.894 20.619 50.976 20.996 51.14 21.323 C 51.316 21.637 51.562 21.888 51.877 22.077 C 52.205 22.253 52.57 22.341 52.973 22.341 C 53.376 22.341 53.735 22.253 54.05 22.077 C 54.365 21.888 54.611 21.631 54.787 21.304 C 54.964 20.977 55.052 20.588 55.052 20.136 L 55.052 14.123 L 57.528 14.123 L 57.528 24.376 L 55.184 24.376 L 55.184 22.36 L 55.392 22.718 C 55.153 23.346 54.756 23.817 54.201 24.131 C 53.66 24.445 53.024 24.603 52.293 24.603 Z M 59.451 24.376 L 59.451 14.123 L 61.775 14.123 L 61.775 16.14 L 61.587 15.782 C 61.826 15.166 62.216 14.701 62.758 14.387 C 63.312 14.06 63.955 13.897 64.686 13.897 C 65.442 13.897 66.109 14.06 66.689 14.387 C 67.281 14.714 67.741 15.172 68.068 15.763 C 68.396 16.341 68.56 17.013 68.56 17.78 L 68.56 24.376 L 66.084 24.376 L 66.084 18.364 C 66.084 17.911 65.996 17.522 65.82 17.195 C 65.643 16.869 65.397 16.617 65.082 16.441 C 64.78 16.253 64.421 16.159 64.005 16.159 C 63.602 16.159 63.243 16.253 62.928 16.441 C 62.613 16.617 62.367 16.869 62.191 17.195 C 62.015 17.522 61.927 17.911 61.927 18.364 L 61.927 24.376 Z M 74.962 24.489 C 73.803 24.489 72.902 24.175 72.259 23.547 C 71.63 22.906 71.315 22.008 71.315 20.852 L 71.315 16.328 L 69.538 16.328 L 69.538 14.123 L 69.727 14.123 C 70.231 14.123 70.622 13.991 70.898 13.727 C 71.176 13.463 71.315 13.08 71.315 12.577 L 71.315 11.786 L 73.79 11.786 L 73.79 14.123 L 76.152 14.123 L 76.152 16.328 L 73.79 16.328 L 73.79 20.72 C 73.79 21.059 73.847 21.348 73.96 21.587 C 74.086 21.825 74.275 22.008 74.527 22.133 C 74.792 22.259 75.126 22.322 75.529 22.322 C 75.617 22.322 75.718 22.316 75.831 22.303 C 75.957 22.291 76.077 22.278 76.19 22.265 L 76.19 24.376 C 76.014 24.402 75.812 24.427 75.586 24.452 C 75.359 24.477 75.151 24.489 74.962 24.489 Z M 81.37 24.603 C 80.576 24.603 79.883 24.427 79.291 24.075 C 78.712 23.723 78.264 23.233 77.949 22.605 C 77.647 21.976 77.496 21.241 77.496 20.399 L 77.496 14.123 L 79.971 14.123 L 79.971 20.192 C 79.971 20.619 80.053 20.996 80.217 21.323 C 80.393 21.637 80.639 21.888 80.954 22.077 C 81.282 22.253 81.647 22.341 82.05 22.341 C 82.454 22.341 82.813 22.253 83.128 22.077 C 83.442 21.888 83.688 21.631 83.864 21.304 C 84.041 20.977 84.129 20.588 84.129 20.136 L 84.129 14.123 L 86.604 14.123 L 86.604 24.376 L 84.261 24.376 L 84.261 22.36 L 84.469 22.718 C 84.23 23.346 83.833 23.817 83.279 24.131 C 82.737 24.445 82.101 24.603 81.37 24.603 Z M 96.196 24.489 C 95.036 24.489 94.135 24.175 93.493 23.547 C 92.863 22.906 92.548 22.008 92.548 20.852 L 92.548 16.328 L 90.772 16.328 L 90.772 14.123 L 90.961 14.123 C 91.465 14.123 91.856 13.991 92.132 13.727 C 92.41 13.463 92.548 13.08 92.548 12.577 L 92.548 11.786 L 95.024 11.786 L 95.024 14.123 L 97.386 14.123 L 97.386 16.328 L 95.024 16.328 L 95.024 20.72 C 95.024 21.059 95.081 21.348 95.194 21.587 C 95.32 21.825 95.509 22.008 95.761 22.133 C 96.025 22.259 96.359 22.322 96.763 22.322 C 96.85 22.322 96.952 22.316 97.065 22.303 C 97.191 22.291 97.311 22.278 97.424 22.265 L 97.424 24.376 C 97.248 24.402 97.046 24.427 96.819 24.452 C 96.592 24.477 96.385 24.489 96.196 24.489 Z M 98.938 24.376 L 98.938 14.123 L 101.262 14.123 L 101.262 16.404 L 101.073 16.064 C 101.312 15.298 101.684 14.764 102.188 14.462 C 102.704 14.161 103.322 14.01 104.04 14.01 L 104.645 14.01 L 104.645 16.196 L 103.756 16.196 C 103.051 16.196 102.484 16.416 102.055 16.856 C 101.627 17.283 101.413 17.886 101.413 18.665 L 101.413 24.376 Z M 105.628 24.376 L 105.628 14.123 L 108.103 14.123 L 108.103 24.376 Z M 105.628 12.973 L 105.628 10.335 L 108.103 10.335 L 108.103 12.973 Z M 115.624 24.603 C 114.88 24.603 114.194 24.458 113.564 24.169 C 112.946 23.868 112.455 23.44 112.09 22.887 L 112.335 22.397 L 112.335 24.376 L 110.011 24.376 L 110.011 10.108 L 112.487 10.108 L 112.487 16.159 L 112.109 15.65 C 112.461 15.097 112.94 14.67 113.545 14.368 C 114.15 14.054 114.849 13.897 115.643 13.897 C 116.613 13.897 117.489 14.136 118.269 14.613 C 119.051 15.091 119.668 15.731 120.121 16.536 C 120.587 17.34 120.821 18.244 120.821 19.25 C 120.821 20.242 120.594 21.147 120.141 21.964 C 119.687 22.781 119.069 23.428 118.288 23.905 C 117.507 24.37 116.619 24.603 115.624 24.603 Z M 115.34 22.341 C 115.907 22.341 116.411 22.209 116.852 21.945 C 117.293 21.681 117.634 21.317 117.872 20.852 C 118.125 20.387 118.251 19.853 118.251 19.25 C 118.251 18.647 118.125 18.119 117.872 17.666 C 117.634 17.202 117.293 16.837 116.852 16.573 C 116.411 16.297 115.907 16.159 115.34 16.159 C 114.799 16.159 114.307 16.291 113.866 16.554 C 113.438 16.818 113.098 17.189 112.846 17.666 C 112.606 18.131 112.487 18.659 112.487 19.25 C 112.487 19.853 112.606 20.387 112.846 20.852 C 113.098 21.317 113.438 21.681 113.866 21.945 C 114.307 22.209 114.799 22.341 115.34 22.341 Z M 127.206 24.603 C 126.148 24.603 125.222 24.364 124.428 23.886 C 123.634 23.409 123.017 22.762 122.576 21.945 C 122.135 21.128 121.914 20.224 121.914 19.231 C 121.914 18.201 122.135 17.29 122.576 16.498 C 123.029 15.694 123.64 15.059 124.409 14.594 C 125.19 14.129 126.059 13.897 127.017 13.897 C 127.823 13.897 128.529 14.029 129.134 14.293 C 129.75 14.557 130.273 14.921 130.702 15.386 C 131.13 15.851 131.458 16.385 131.685 16.988 C 131.911 17.578 132.025 18.219 132.025 18.91 C 132.025 19.086 132.012 19.269 131.987 19.457 C 131.975 19.646 131.943 19.809 131.893 19.947 L 123.955 19.947 L 123.955 18.062 L 130.494 18.062 L 129.323 18.948 C 129.436 18.37 129.404 17.855 129.228 17.403 C 129.064 16.95 128.787 16.592 128.396 16.328 C 128.018 16.064 127.558 15.932 127.017 15.932 C 126.5 15.932 126.041 16.064 125.637 16.328 C 125.234 16.58 124.926 16.957 124.712 17.459 C 124.51 17.949 124.434 18.546 124.484 19.25 C 124.434 19.878 124.516 20.437 124.731 20.927 C 124.957 21.405 125.285 21.775 125.713 22.039 C 126.154 22.303 126.658 22.435 127.225 22.435 C 127.792 22.435 128.27 22.316 128.661 22.077 C 129.064 21.838 129.379 21.518 129.606 21.116 L 131.609 22.096 C 131.407 22.586 131.092 23.019 130.665 23.396 C 130.236 23.773 129.725 24.069 129.134 24.282 C 128.554 24.496 127.911 24.603 127.206 24.603 Z" fill="rgb(255,255,255)"></path></g></svg>